<svg fill="none" height="43" viewBox="0 0 41 43" width="41" xmlns="http://www.w3.org/2000/svg"><path d="m21.9362 2c1.5579 0 2.9211.78 3.5053 1.95.3895.585.5842 1.365.5842 2.145 0 .585.1947 1.17.3895 1.755.9737 1.755 3.3105 2.34 5.0631 1.365 1.9474-1.17 4.479-.39 5.6474 1.56l1.3632 2.34c1.1684 1.95.5842 4.485-1.5579 5.46-1.7527.975-2.3369 3.12-1.3632 4.875.3895.585.5842.975 1.1684 1.17.779.39 1.1684.975 1.5579 1.56.779 1.17.5842 2.73 0 3.9l-1.1684 2.34c-.779 1.17-2.1421 1.95-3.5053 1.95-.7789 0-1.5579-.195-2.1421-.585s-1.1684-.39-1.7526-.39c-1.9474 0-3.7 1.56-3.7 3.51 0 2.145-1.7526 3.9-4.0895 3.9h-2.7263c-2.3368 0-4.0895-1.755-4.0895-3.9 0-1.95-1.7526-3.51-3.7-3.51-.5842 0-1.1684.195-1.7526.39-.58421.39-1.36316.585-2.1421.585-1.36316 0-2.72632-.78-3.50527-1.95l-1.36315-2.34c-.77895-1.17-.77895-2.73 0-3.9.38947-.585.97368-1.17 1.55789-1.56.58421-.195.97368-.78 1.16842-1.17.97369-1.755.38948-3.9-1.36316-4.875-1.94737-1.17-2.53158-3.51-1.55789-5.46l1.55789-2.535c1.16842-1.95 3.7-2.535 5.64737-1.56 1.7526.975 3.8947.39 5.0632-1.365.3894-.585.5842-1.17.3894-1.755 0-.585.1948-1.365.5842-1.95.5843-1.17 1.9474-1.95 3.5053-1.95zm-1.3631 14.04c-3.1158 0-5.6474 2.535-5.6474 5.46s2.5316 5.46 5.6474 5.46 5.6473-2.34 5.6473-5.46-2.5315-5.46-5.6473-5.46z" stroke="#727272" stroke-width="3"/></svg>